<svg width="20" height="15" viewBox="0 0 20 15" fill="none" xmlns="http://www.w3.org/2000/svg">
<g clip-path="url(#clip0_139_14633)">
<path d="M0 10H20V15H0V10Z" fill="#1EB53A"/>
<path d="M0 0H20V5H0V0Z" fill="#0099B5"/>
<path d="M0 4.8H20V10.2H0V4.8Z" fill="#CE1126"/>
<path d="M0 5.10001H20V9.90001H0V5.10001Z" fill="white"/>
<path d="M4.19996 4.20001C5.19408 4.20001 5.99996 3.39412 5.99996 2.40001C5.99996 1.40589 5.19408 0.600006 4.19996 0.600006C3.20585 0.600006 2.39996 1.40589 2.39996 2.40001C2.39996 3.39412 3.20585 4.20001 4.19996 4.20001Z" fill="white"/>
<path d="M4.80001 4.20001C5.79412 4.20001 6.60001 3.39412 6.60001 2.40001C6.60001 1.40589 5.79412 0.600006 4.80001 0.600006C3.80589 0.600006 3 1.40589 3 2.40001C3 3.39412 3.80589 4.20001 4.80001 4.20001Z" fill="#0099B5"/>
<path d="M8.15935 3.48062L8.04535 3.82263L8.21936 3.88263" fill="white"/>
<path d="M8.15935 3.48062L8.04535 3.82263L8.21936 3.88263" fill="white"/>
<path d="M8.15935 3.48062L8.04535 3.82263L8.21936 3.88263" fill="white"/>
<path d="M8.15935 3.48062L8.04535 3.82263L8.21936 3.88263" fill="white"/>
<path d="M8.15935 3.48062L8.04535 3.82263L8.21936 3.88263" fill="white"/>
<path d="M8.15935 3.48062L8.04535 3.82263L8.21936 3.88263" fill="white"/>
<path d="M8.15935 3.48062L8.04535 3.82263L8.21936 3.88263" fill="white"/>
<path d="M8.15935 3.48062L8.04535 3.82263L8.21936 3.88263" fill="white"/>
<path d="M8.15935 3.48062L8.04535 3.82263L8.21936 3.88263" fill="white"/>
<path d="M8.15935 3.48062L8.04535 3.82263L8.21936 3.88263" fill="white"/>
<path d="M8.15935 3.48062L8.04535 3.82263L8.21936 3.88263" fill="white"/>
<path d="M8.15935 3.48062L8.04535 3.82263L8.21936 3.88263" fill="white"/>
<path d="M8.15935 3.48062L8.04535 3.82263L8.21936 3.88263" fill="white"/>
<path d="M8.15935 3.48062L8.04535 3.82263L8.21936 3.88263" fill="white"/>
<path d="M8.15935 3.48062L8.04535 3.82263L8.21936 3.88263" fill="white"/>
<path d="M8.15935 3.48062L8.04535 3.82263L8.21936 3.88263" fill="white"/>
<path d="M8.15935 3.48062L8.04535 3.82263L8.21936 3.88263" fill="white"/>
<path d="M8.15935 3.48062L8.04535 3.82263L8.21936 3.88263" fill="white"/>
<path d="M8.15935 3.48062L8.04535 3.82263L8.21936 3.88263" fill="white"/>
<path d="M8.15935 3.48062L8.04535 3.82263L8.21936 3.88263" fill="white"/>
<path d="M8.15935 3.48062L8.04535 3.82263L8.21936 3.88263" fill="white"/>
<path d="M8.15935 3.48062L8.04535 3.82263L8.21936 3.88263" fill="white"/>
<path d="M8.15935 3.48062L8.04535 3.82263L8.21936 3.88263" fill="white"/>
<path d="M8.15935 3.48062L8.04535 3.82263L8.21936 3.88263" fill="white"/>
<path d="M8.15935 3.48062L8.04535 3.82263L8.21936 3.88263" fill="white"/>
<path d="M8.15935 3.48062L8.04535 3.82263L8.21936 3.88263" fill="white"/>
<path d="M8.15935 3.48062L8.04535 3.82263L8.21936 3.88263" fill="white"/>
<path d="M8.15935 3.48062L8.04535 3.82263L8.21936 3.88263" fill="white"/>
<path d="M8.15935 3.48062L8.04535 3.82263L8.21936 3.88263" fill="white"/>
<path d="M8.15935 3.48062L8.04535 3.82263L8.21936 3.88263" fill="white"/>
<path d="M8.15935 3.48062L8.04535 3.82263L8.21936 3.88263" fill="white"/>
<path d="M8.15935 3.48062L8.04535 3.82263L8.21936 3.88263" fill="white"/>
<path d="M8.15935 3.48062L8.04535 3.82263L8.21936 3.88263" fill="white"/>
<path d="M8.15935 3.48062L8.04535 3.82263L8.21936 3.88263" fill="white"/>
<path d="M8.15935 3.48062L8.04535 3.82263L8.21936 3.88263" fill="white"/>
<path d="M8.15935 3.48062L8.04535 3.82263L8.21936 3.88263" fill="white"/>
<path d="M8.15935 3.48062L8.04535 3.82263L8.21936 3.88263" fill="white"/>
<path d="M8.15935 3.48062L8.04535 3.82263L8.21936 3.88263" fill="white"/>
<path d="M8.15935 3.48062L8.04535 3.82263L8.21936 3.88263" fill="white"/>
<path d="M8.15935 3.48062L8.04535 3.82263L8.21936 3.88263" fill="white"/>
<path d="M8.15935 3.48062L8.04535 3.82263L8.21936 3.88263" fill="white"/>
<path d="M8.15935 3.48062L8.04535 3.82263L8.21936 3.88263" fill="white"/>
<path d="M8.15935 3.48062L8.04535 3.82263L8.21936 3.88263" fill="white"/>
<path d="M8.15935 3.48062L8.04535 3.82263L8.21936 3.88263" fill="white"/>
<path d="M8.15935 3.48062L8.04535 3.82263L8.21936 3.88263" fill="white"/>
<path d="M8.15935 3.48062L8.04535 3.82263L8.21936 3.88263" fill="white"/>
<path d="M8.15935 3.48062L8.04535 3.82263L8.21936 3.88263" fill="white"/>
<path d="M8.15935 3.48062L8.04535 3.82263L8.21936 3.88263" fill="white"/>
<path d="M8.15935 3.48062L8.04535 3.82263L8.21936 3.88263" fill="white"/>
<path d="M8.15935 3.48062L8.04535 3.82263L8.21936 3.88263" fill="white"/>
<path d="M8.15935 3.48062L8.04535 3.82263L8.21936 3.88263" fill="white"/>
<path d="M8.15935 3.48062L8.04535 3.82263L8.21936 3.88263" fill="white"/>
<path d="M8.15935 3.48062L8.04535 3.82263L8.21936 3.88263" fill="white"/>
<path d="M8.15935 3.48062L8.04535 3.82263L8.21936 3.88263" fill="white"/>
<path d="M8.15935 3.48062L8.04535 3.82263L8.21936 3.88263" fill="white"/>
<path d="M8.15935 3.48062L8.04535 3.82263L8.21936 3.88263" fill="white"/>
<path d="M8.15935 3.48062L8.04535 3.82263L8.21936 3.88263" fill="white"/>
<path d="M8.15935 3.48062L8.04535 3.82263L8.21936 3.88263" fill="white"/>
<path d="M8.15935 3.48062L8.04535 3.82263L8.21936 3.88263" fill="white"/>
<path d="M8.15935 3.48062L8.04535 3.82263L8.21936 3.88263" fill="white"/>
</g>
<defs>
<clipPath id="clip0_139_14633">
<rect width="20" height="15" rx="2" fill="white"/>
</clipPath>
</defs>
</svg>
