<svg width="100" height="24" viewBox="0 0 100 24" fill="none" xmlns="http://www.w3.org/2000/svg">
  <g clip-path="url(#clip0_2911_20612)">
    <path d="M69.9784 4.08298L67.8955 2.00006L65.8127 4.08298L67.8955 6.1659L69.9784 4.08298Z" fill="#0A0A0A" />
    <path d="M35.0211 7.34265C34.1309 7.34265 33.3249 7.60275 32.6253 8.11545C31.9184 8.64295 31.4238 9.23275 31.1453 9.88485C30.6178 8.19255 29.4273 7.34265 27.548 7.34265C26.5699 7.34265 25.775 7.61365 25.1522 8.15955C24.5185 8.70525 24.1193 9.26215 23.9396 9.82255V7.45245H21.1264V18.8818H23.9396V12.0682C23.991 11.5077 24.2511 10.9693 24.7018 10.4454C25.1413 9.92875 25.742 9.67255 26.5076 9.67255C27.797 9.67255 28.6212 10.4856 28.6212 12.2478V18.8818H31.4347V11.9986C31.4347 11.5188 31.6692 11.0022 32.1416 10.4638C32.6032 9.93995 33.2371 9.67255 34.032 9.67255C35.2921 9.67255 36.1163 10.4563 36.1163 12.2478V18.8818H38.9296V12.1707C38.9296 10.5077 38.5745 9.28415 37.8564 8.50385C37.1384 7.73095 36.1932 7.34265 35.0211 7.34265Z" fill="#0A0A0A" />
    <path d="M40.2128 13.1855C40.2128 21.1341 51.8758 20.8037 51.8758 13.1855C51.8758 5.46186 40.2128 5.44916 40.2128 13.1855ZM49.1502 13.1927C49.1502 15.0003 48.0701 16.7498 46.0369 16.7498C43.9993 16.7498 42.9163 15.006 42.9163 13.1927C42.9163 11.3576 43.9645 9.62836 46.0369 9.62836C48.1038 9.62836 49.1502 11.3649 49.1502 13.1927Z" fill="#0A0A0A" />
    <path d="M59.3918 7.34266C58.6078 7.34266 57.9303 7.51476 57.3405 7.85896C56.7507 8.19986 56.3221 8.62116 56.0765 9.10086V3.36426H53.2632V18.8818H56.0765V16.9917C56.1718 17.4055 56.5051 17.8453 57.0731 18.3177C57.6445 18.7975 58.3955 19.0358 59.3295 19.0358C62.614 19.0358 64.6884 16.2168 64.6884 13.1746C64.6884 10.1775 62.6381 7.34266 59.3918 7.34266ZM58.8057 16.7498C57.9778 16.7498 57.3002 16.4385 56.7507 15.8266C56.2047 15.215 55.9374 14.3212 55.9374 13.1634C55.9374 12.0134 56.2047 11.1305 56.7507 10.5298C57.3002 9.92876 57.9778 9.62836 58.8057 9.62836C60.8869 9.62836 61.7033 11.3093 61.7033 13.1746C61.7033 15.0439 60.9053 16.7498 58.8057 16.7498Z" fill="#0A0A0A" />
    <path d="M71.6535 18.8818H74.4668V3.36426H71.6535V18.8818Z" fill="#0A0A0A" />
    <path d="M84.3969 14.3101C84.3016 14.8596 84.0121 15.3871 83.5285 15.9146C83.0451 16.4385 82.4114 16.7059 81.6275 16.7059C80.1145 16.7059 79.3635 15.8817 79.3635 14.2259V7.45245H76.5502V14.376C76.5502 17.4787 77.902 19.0358 80.62 19.0358C81.5833 19.0358 82.4003 18.7572 83.0669 18.1968C83.7338 17.6511 84.1733 17.0942 84.3969 16.5338V18.8818H87.2101V7.45245H84.3969V14.3101Z" fill="#0A0A0A" />
    <path fill-rule="evenodd" clip-rule="evenodd" d="M88.4994 7.45245H91.6706L94.2142 11.1326L96.7575 7.45245H99.9287L95.9293 13.1748L99.9181 18.8818H96.4872L94.2142 15.4769L91.9409 18.8818H88.51L92.4985 13.1748L88.4994 7.45245Z" fill="#0A0A0A" />
    <path d="M66.4888 18.8818H69.3021V7.45245H66.4888V18.8818Z" fill="#0A0A0A" />
    <path d="M13.1008 22.0833L13.9292 21.2549V2.91601L13.0965 2.08331H2.7576L1.9292 2.91181V21.2549L2.7576 22.0833H13.1008ZM1.9292 24.0833L-0.0708002 22.1372C-0.0708002 15.4199 -0.0719002 8.80061 -0.0708002 2.08331L1.9292 0.083313H13.9206L15.9292 2.08331C15.928 8.80061 15.9292 15.366 15.9292 22.0833L13.9292 24.0833H1.9292Z" fill="#19B423" />
    <path d="M9.42909 20.0833H6.42929V21.0834H9.42909V20.0833Z" fill="#19B423" />
  </g>
  <defs>
    <clipPath id="clip0_2911_20612">
      <rect width="100" height="24" fill="white" />
    </clipPath>
  </defs>
</svg>